<?xml version="1.0" ?><!DOCTYPE svg  PUBLIC '-//W3C//DTD SVG 1.1//EN'  'http://www.w3.org/Graphics/SVG/1.1/DTD/svg11.dtd'><svg enable-background="new 0 0 800 800" height="800px" id="Layer_1" version="1.1" viewBox="0 0 800 800" width="800px" xml:space="preserve" xmlns="http://www.w3.org/2000/svg" xmlns:xlink="http://www.w3.org/1999/xlink"><g><path d="M294.561,453.829c9.847,0,17.841-7.989,17.841-17.841v-0.697c0-9.852-7.995-17.492-17.841-17.492   s-17.841,8.338-17.841,18.189S284.714,453.829,294.561,453.829z" fill="#4D4E4E"/><path d="M308.29,346.862V140.52c0.101-7.283,3.187-71.165,81.243-71.165h74.25c78.054,0,81.142,63.882,81.24,71.035   v215.019c0,9.852,7.985,17.842,17.843,17.842c9.846,0,17.84-7.99,17.84-17.842V140.355   c-0.079-36.896-24.592-106.682-116.923-106.682h-74.25c-92.333,0-116.844,69.786-116.923,106.718v207.666   c-67.104,10.594-118.636,68.657-118.636,138.692v261.737c0,9.851,7.994,17.841,17.84,17.841h245.495   c9.847,0,17.841-7.99,17.841-17.841V486.749C435.149,413.866,379.396,353.787,308.29,346.862z M399.467,730.645H189.656V486.749   c0-57.845,47.07-104.901,104.916-104.901c57.833,0,104.895,47.056,104.895,104.901V730.645z" fill="#4D4E4E"/><path d="M345.865,602.457c-9.857,0-17.841,7.99-17.841,17.841v19.43h-66.925v-19.43   c0-9.851-7.983-17.841-17.84-17.841c-9.847,0-17.843,7.99-17.843,17.841v37.271c0,9.852,7.996,17.841,17.843,17.841h102.606   c9.846,0,17.84-7.989,17.84-17.841v-37.271C363.705,610.447,355.711,602.457,345.865,602.457z" fill="#4D4E4E"/><path d="M111.033,598.439c-9.846,0-17.842,7.99-17.842,17.841v132.206c0,9.851,7.996,17.841,17.842,17.841   c9.847,0,17.841-7.99,17.841-17.841V616.28C128.874,606.43,120.88,598.439,111.033,598.439z" fill="#4D4E4E"/><path d="M688.968,730.645H580.706V431.389v-10.195c0-9.852-7.994-17.841-17.84-17.841   c-9.857,0-17.843,7.989-17.843,17.841v10.195v299.256h-49.092V616.28c0-9.851-7.996-17.841-17.842-17.841   c-9.847,0-17.841,7.99-17.841,17.841v132.206c0,9.851,7.994,17.841,17.841,17.841c0.447,0,0.856-0.101,1.284-0.13   c0.438,0.029,0.856,0.13,1.294,0.13h82.198h12.104h113.997c9.847,0,17.841-7.99,17.841-17.841   C706.809,738.635,698.814,730.645,688.968,730.645z" fill="#4D4E4E"/></g></svg>